<svg xmlns="http://www.w3.org/2000/svg" width="250" height="250" fill="none" viewBox="0 0 250 250">
<!-- SVG created with Arrow, by QuiverAI (https://quiver.ai) -->
  <path d="m121.2 243.4c36.6 0 66.19-1.92 66.19-4.26s-29.59-3.68-66.19-3.68-66.19 1.34-70.19 3.68c0 2.34 33.59 4.26 70.19 4.26z" fill="#3D3D3D" opacity=".15"/>
  <path d="m135.4 17.07c-2.47 0-6.54-0.38-8.23 2.07s-2.09 4.9-2.39 8.48c3.05-1.38 7.75-1.84 8.93-4.9 1-2.81 1.69-5.65 1.69-5.65z" fill="url(#paint0_linear_1069_13390)"/>
  <path d="m193.9 8.09c-1.58-0.48-4.98-1.62-7.45-0.38-1.5 0.76-2.29 2.35-2.83 4.26 1.73 1.69 5.41 1.48 7.34 0.31 2.09-1.22 2.94-4.19 2.94-4.19z" fill="url(#paint1_linear_1069_13390)"/>
  <path d="m213.2 9.07c5.67 1.07 5.38 9.71 1.48 11.77-4.54 2.37-7.68 0.32-12.84 0.88-9.96 1.09-15.71 11.13-15.06 18.08 0.2 1.48 0.77 3.67 0.77 3.67-4.43 1.97-7.67-2.15-6.5-9.51 0.69-4.35 2.65-6.69 2.65-6.69-5.84-7.58-15.48-10.3-23.45-9.39-10.27 1.19-19.86 10.15-21.34 21.34-5.83-3.13-11.28-3.94-18.04-2.54-11 2.45-17.45 11.93-17.94 20.19l-4.84-1.86c-8.16-2.45-14.29 1.17-17.42 8.03l-52.98 105.2c-4.02 7.87 0.2 15.93 7.05 18.68l71.26 34.23c8.06 2.94 14.5-0.98 17.84-8.85l15.55-31.09c5.35-9.48 9.8-10.96 16.44-11.25 11.89-0.49 18.75-4.41 25.29-13.89 4.02-6.85 3.53-12 1.85-18.55 12.28-1.95 21.87-13.74 22.36-26.02 0.29-8.88-4.86-16.75-9.6-20.67-2.05-1.18-6.36 0.88-10.99 1.17-3.52-3.03-1.67-14.42 9.03-14.91 10.6-0.49 19.2-7.34 22.23-16.82 2.35-7.77-0.78-16.75-5.62-17.53-4.34-0.69-5.35-5.64-2.5-8.87 2.75-3.13 6.27-2.64 9.89-5.39 7.14-5.26 7.04-18.42-4.57-19.45z" fill="url(#paint2_linear_1069_13390)"/>
  <path d="m210.1 57.17c-4.02 7.97-8.04 12.71-17.72 13.49-14.75 1.58-17.2 16.13-14.95 22.78l3.24 2.94 3.43-5.22c-2.05-4.75 1.87-13.83 11.05-13.93 9.78-0.1 18.18-8.37 20.91-17.02 1.08-3.73 0.89-8.15-0.59-11.78l-5.37 8.74z" fill="url(#paint3_linear_1069_13390)" opacity=".5"/>
  <path d="m182.8 25.93c-6.64-3.82-12.57-3.32-16.1-3.62-13.66-0.98-22.64 11.11-22.94 23.98l0.69 4.42c-6.64-6.45-14.3-9.48-21.97-7.63-9.78 2.45-14.32 9.7-15.3 16.96l-2.05-1.96c1.58-11.29 9.04-19.95 21.13-20.15 4.84-0.09 8.86 0.99 13.49 3.54 2.06-10.79 10.32-22.59 23.09-23.37 8.66-0.59 14.21 2.35 20.85 6.77l-0.89 1.06z" fill="url(#paint4_linear_1069_13390)" opacity=".5"/>
  <path d="m192.9 92.04c5.73 6.45 7.98 14.61 5.43 23.38-4.23 13.36-16.41 17.49-29.48 13.26l-0.59 2.15c7.86 3.04 10.8 11.1 8.45 18.77-3.33 8.97-10.79 13.71-20.48 12.43-9.78-0.79-17.34 6.68-21.47 14.94l-16.33 32.66c-3.24 6.35-7.26 7.23-12.52 4.48l-69.18-33.54c-4.64-2.84-6.12-7.07-3.47-12.49l52.98-102.4c2.65-5.32 7.39-6.21 10.91-4.93l28.5 7.06c-3.04 4.73-5.49 5.71-10.33 3.56l-18.26-6.86c-3.14-1.28-6.87-0.69-8.92 4.26l-53.79 102.4c-2.06 4.84-0.39 8.67 4.45 10.82l68.89 32.18c5.04 2.45 8.56-0.88 11.01-6.33l15.18-30.03c4.74-9.78 11.49-13.7 19.85-12.62 12.18 1.58 21.46-4.28 24.98-13.15 2.05-6.15 0.1-12.6-3.63-16.23 12.18 0.39 23.07-8.48 28.61-19.57 3.82-9.48-0.91-21.17-7.86-26.2l-2.93 2.06z" fill="url(#paint5_linear_1069_13390)"/>
  <path d="m80.12 86.11-35.01 65.57 2.05 2.15c10.48 5.25 16.61 16.84 12.69 31.59l-0.69 1.67 31.99 14.36 1.48-2.55c7.36-10.99 18.25-13.73 30.53-10.1l1.86 0.59 14.15-30.4c2.55-4.74 5.69-7.29 9.61-8.37 7.57-2.35 11.39-12.32 8.55-19.18-2.15 5.66-5.29 9.19-11.42 8.89-5.25-0.29-8.09 2.36-10.05 5.99-0.69-4.65 2.35-10 8.89-11.57 5.36-1.48 4.97-12.67 10.42-17.51l-3.23-1.18c-4.64 1.38-6.79-1.85-8.65-3.33-3.33-1.58-5.58 2.35-5.87 5.39-3.24-4.65-1.76-10 3.29-13.23 4.54-2.85 3.26-10.01-2.78-12.55-2.75-1.08-5 1.27-12.86-2.26 6.14-1.57 11.58-5.7 13.15-13.96 1.08-5.75 4.71-8.89 9.96-10.37-7.26-2.35-13.3 1.68-16.93 8.23-3.52 5.65-9.06 6.93-16.2 4.08l-0.79-0.39c-8.16 10.99-20.05 15.11-31.94 12.08l-2.2-3.64z" fill="url(#paint6_radial_1069_13390)"/>
  <path d="m83.74 84.63 7.97-16.51c0.78-1.58 1.76-1.67 3.44-0.89l13.47 7.05c-3.63 8.47-14.91 12.9-24.88 10.35z" fill="url(#paint7_linear_1069_13390)"/>
  <path d="m47.06 157.5-8.26 15.44c-0.78 1.77-0.09 3.14 1.58 3.93l14.75 6.75c3.93-7.97 1.88-19.96-8.07-26.12z" fill="url(#paint8_linear_1069_13390)"/>
  <path d="m96.03 201.8 14.25 7.26c1.86 0.88 3.04-0.2 3.93-2.35l7.05-13.66c-9.59-4.14-20.49-0.81-25.23 8.75z" fill="url(#paint9_linear_1069_13390)"/>
  <path d="m223.1 81.11c-1.38 2.75-3.06 4.32-6.98 4.81-6.04 0.79-6.73 4.81-6.92 8.84 2.55-2.35 4.8-2.64 7.35-3.04 5.74-1.18 7.79-7.53 6.55-10.61z" fill="url(#paint10_linear_1069_13390)"/>
  <path d="m160.9 178.6c-2.55 0.69-4.03 0.29-6.97 0.49-4.23 0.29-5.11 4.22-5.41 6.97 3.43 0.1 7.15 0.29 9.3-1.57 1.96-1.67 2.45-4.02 3.08-5.89z" fill="url(#paint11_linear_1069_13390)"/>
  <path d="m196.4 141.8c-2.25 0.88-2.44 3.33-1.76 4.91 1.38 1.08 4.03 0.98 5.41-0.79 1.18-1.38 2.06-2.36 1.96-3.24-0.88-1.08-3.24-1.67-5.61-0.88z" fill="url(#paint12_linear_1069_13390)"/>
  <path d="m95.74 46.3c2.01 0 2.74-1.12 2.74-2.53s-0.82-2.54-2.23-2.54c-1.4 0-2.53 1.13-2.53 2.54s0.81 2.53 2.02 2.53z" fill="url(#paint13_linear_1069_13390)"/>
  <path d="m196.4 52.95c2.01 0 2.13-1.54 2.13-2.45 0-1.41-0.96-2.22-2.02-2.22-1.4 0-2.03 1.13-2.03 2.22 0 1.32 0.72 2.45 1.92 2.45z" fill="url(#paint14_linear_1069_13390)"/>
  <path d="m125.2 58.21c1.7 0 2.21-1.23 2.21-2.37 0-1.13-0.7-2.06-1.75-2.06-1.31 0-2.01 0.93-2.01 2.06 0 1.14 0.61 2.37 1.55 2.37z" fill="url(#paint15_linear_1069_13390)"/>
  <path d="m153.4 57.33c1.74 0 2.13-1.04 2.13-2.02 0-1.18-0.97-1.97-1.94-1.97-1.18 0-1.96 0.98-1.96 1.97 0 1.08 0.78 2.02 1.77 2.02z" fill="url(#paint16_linear_1069_13390)"/>
  <path d="m145.7 84.14c1.74 0 1.94-1.18 1.94-2.07 0-1.28-0.98-1.96-1.96-1.96-1.28 0-1.96 0.98-1.96 1.96 0 1.18 0.88 2.07 1.98 2.07z" fill="url(#paint17_linear_1069_13390)"/>
  <path d="m171.9 105.7c1.48 0.98 2.76-0.39 3.05-1.57 0.59-1.67-0.59-2.36-1.27-2.55-1.48-0.3-2.66 0.88-2.96 1.86-0.39 1.08 0.1 1.77 1.18 2.26z" fill="url(#paint18_linear_1069_13390)"/>
  <path d="m163 151.1c1.99 0 2.02-1.46 2.02-2.2 0-1.22-1.05-1.87-1.92-1.87-1.4 0-2.13 0.98-2.13 1.87 0 1.13 0.81 2.2 2.03 2.2z" fill="url(#paint19_linear_1069_13390)"/>
  <path d="m146.9 158.9c1.45 0 1.55-1.12 1.55-1.81 0-1.13-0.92-1.76-1.69-1.76-1.13 0-1.76 0.92-1.76 1.76 0 1.02 0.72 1.81 1.9 1.81z" fill="url(#paint20_linear_1069_13390)"/>
  <path d="m163.9 42.78c-3.83 1.38-3.83 4.41-3.34 5 1.77 1.38 4.22 0.4 5.99-0.69 2.36-1.38 3.64-2.16 3.94-3.24-1.38-1.57-3.54-2.16-6.59-1.07z" fill="url(#paint21_linear_1069_13390)"/>
  <path d="m115.2 99.47c-0.49 9.48-7.03 18.45-15.09 18.25l0.78-6.86c-5.74 6.35-14.82 7.73-20.36 17.8-6.54 13.46 1.83 29.29 13.62 32.04 10.89 2.85 20.37-0.39 26.82-11.58 4.94-8.87 5.04-15.93 2.79-22.38-1.68 5.15-4.72 7.21-7.56 6.92 7.66-13.65 4.53-25.84-1-34.19z" fill="url(#paint22_radial_1069_13390)"/>
  <path d="m95.29 127.7-0.49 6.25c4.02-5.95 7.45-8.2 12.39-8.3-3.43 3.43-3.23 8.07-0.1 15.34l-0.39 4.63 5.54-4.13c1.28 5.25-4.36 14.42-13.53 13.93-8.66-0.79-13.6-10.46-11.35-17.72 1.47-4.34 3.82-7.57 7.93-10z" fill="url(#paint23_linear_1069_13390)"/>
  <path d="m156.3 116.8c0.88-1.77 4.71-3.05 10.85-3.83-1.28 5.85-4.22 9.38-7.36 8.59-2.74-0.78-3.98-2.64-3.49-4.76z" fill="url(#paint24_linear_1069_13390)"/>
  <path d="m173.8 60.95c-1.86 3.83-5 4.32-8.52 4.81-7.97 1.08-8.56 8.14-9.24 12.69 6.44-1.96 11.69-2.35 15.81-7.19 3.04-3.53 2.55-6.87 1.95-10.31z" fill="url(#paint25_linear_1069_13390)"/>
  <path d="m164.5 92.92c-4.24 1.17-9.28 0.19-13.01 3.92-2.55 2.75-3.33 6.28-3.53 9.81 8.87-0.4 12.5-5.24 16.54-13.73z" fill="url(#paint26_linear_1069_13390)"/>
  <path d="m185 111.2c-2.15-0.49-2.54 1.96-2.74 5 1.48 1.08 3.53-0.49 4.22-2.45 0.68-1.57-0.2-2.36-1.48-2.55z" fill="url(#paint27_linear_1069_13390)"/>
  <defs>
    <linearGradient id="paint0_linear_1069_13390" x1="129.9" x2="129.9" y1="16.96" y2="27.62" gradientUnits="userSpaceOnUse">
      <stop stop-color="#B8922E" offset="0"/>
      <stop stop-color="#8A6A1E" offset="1"/>
    </linearGradient>
    <linearGradient id="paint1_linear_1069_13390" x1="188.7" x2="188.7" y1="7" y2="13.37" gradientUnits="userSpaceOnUse">
      <stop stop-color="#D4AF37" offset="0"/>
      <stop stop-color="#B8922E" offset="1"/>
    </linearGradient>
    <linearGradient id="paint2_linear_1069_13390" x1="136.5" x2="136.5" y1="9" y2="222.5" gradientUnits="userSpaceOnUse">
      <stop stop-color="#A07D28" offset="0"/>
      <stop stop-color="#E8D498" offset=".5208"/>
      <stop stop-color="#6B4E18" offset="1"/>
    </linearGradient>
    <linearGradient id="paint3_linear_1069_13390" x1="196.6" x2="196.6" y1="48.43" y2="96.38" gradientUnits="userSpaceOnUse">
      <stop stop-color="#E8D498" stop-opacity=".25" offset="0"/>
      <stop stop-color="#E8D498" stop-opacity=".1" offset="1"/>
    </linearGradient>
    <linearGradient id="paint4_linear_1069_13390" x1="144.5" x2="144.5" y1="18" y2="50.71" gradientUnits="userSpaceOnUse">
      <stop stop-color="#B8922E" offset="0"/>
      <stop stop-color="#E8D498" stop-opacity=".25" offset="1"/>
    </linearGradient>
    <linearGradient id="paint5_linear_1069_13390" x1="116.7" x2="116.7" y1="59.82" y2="215.6" gradientUnits="userSpaceOnUse">
      <stop stop-color="#F5E8B0" offset="0"/>
      <stop stop-color="#E8D898" offset="1"/>
    </linearGradient>
    <radialGradient id="paint6_radial_1069_13390" cx="0" cy="0" r="1" gradientTransform="translate(101.3 137.6) scale(56.15 56.19)" gradientUnits="userSpaceOnUse">
      <stop stop-color="#C11837" offset="0"/>
      <stop stop-color="#20252E" offset=".9427"/>
    </radialGradient>
    <linearGradient id="paint7_linear_1069_13390" x1="96.18" x2="96.18" y1="66.64" y2="85.52" gradientUnits="userSpaceOnUse">
      <stop stop-color="#20252E" offset="0"/>
      <stop stop-color="#20252E" offset="1"/>
    </linearGradient>
    <linearGradient id="paint8_linear_1069_13390" x1="47.51" x2="47.51" y1="157.5" y2="183.6" gradientUnits="userSpaceOnUse">
      <stop stop-color="#20252E" offset="0"/>
      <stop stop-color="#20252E" offset="1"/>
    </linearGradient>
    <linearGradient id="paint9_linear_1069_13390" x1="108.6" x2="108.6" y1="190.4" y2="209.7" gradientUnits="userSpaceOnUse">
      <stop stop-color="#20252E" offset="0"/>
      <stop stop-color="#20252E" offset="1"/>
    </linearGradient>
    <linearGradient id="paint10_linear_1069_13390" x1="216.1" x2="216.1" y1="81.11" y2="94.76" gradientUnits="userSpaceOnUse">
      <stop stop-color="#B8922E" offset="0"/>
      <stop stop-color="#8A6A1E" offset="1"/>
    </linearGradient>
    <linearGradient id="paint11_linear_1069_13390" x1="154.7" x2="154.7" y1="178.5" y2="186.2" gradientUnits="userSpaceOnUse">
      <stop stop-color="#F8541B" offset="0"/>
      <stop stop-color="#FEA53D" offset=".3125"/>
      <stop stop-color="#F8541B" offset=".5677"/>
      <stop stop-color="#D54619" offset="1"/>
    </linearGradient>
    <linearGradient id="paint12_linear_1069_13390" x1="198.3" x2="198.3" y1="141.2" y2="147.4" gradientUnits="userSpaceOnUse">
      <stop stop-color="#6A393B" offset="0"/>
      <stop stop-color="#502D2E" offset="1"/>
    </linearGradient>
    <linearGradient id="paint13_linear_1069_13390" x1="96.1" x2="96.1" y1="41.23" y2="46.3" gradientUnits="userSpaceOnUse">
      <stop stop-color="#D4AF37" offset="0"/>
      <stop stop-color="#B8922E" offset="1"/>
    </linearGradient>
    <linearGradient id="paint14_linear_1069_13390" x1="196.6" x2="196.6" y1="48.28" y2="52.95" gradientUnits="userSpaceOnUse">
      <stop stop-color="#D4AF37" offset="0"/>
      <stop stop-color="#B8922E" offset="1"/>
    </linearGradient>
    <linearGradient id="paint15_linear_1069_13390" x1="125.5" x2="125.5" y1="53.78" y2="58.21" gradientUnits="userSpaceOnUse">
      <stop stop-color="#F8541B" offset="0"/>
      <stop stop-color="#FEA53D" offset=".3125"/>
      <stop stop-color="#F8541B" offset=".5677"/>
      <stop stop-color="#D54619" offset="1"/>
    </linearGradient>
    <linearGradient id="paint16_linear_1069_13390" x1="153.5" x2="153.5" y1="53.34" y2="57.33" gradientUnits="userSpaceOnUse">
      <stop stop-color="#40292B" offset="0"/>
      <stop stop-color="#2A1A1B" offset="1"/>
    </linearGradient>
    <linearGradient id="paint17_linear_1069_13390" x1="145.7" x2="145.7" y1="80.11" y2="84.14" gradientUnits="userSpaceOnUse">
      <stop stop-color="#40292B" offset="0"/>
      <stop stop-color="#2A1A1B" offset="1"/>
    </linearGradient>
    <linearGradient id="paint18_linear_1069_13390" x1="173" x2="173" y1="101.5" y2="106.3" gradientUnits="userSpaceOnUse">
      <stop stop-color="#40292B" offset="0"/>
      <stop stop-color="#2A1A1B" offset="1"/>
    </linearGradient>
    <linearGradient id="paint19_linear_1069_13390" x1="163" x2="163" y1="147" y2="151.1" gradientUnits="userSpaceOnUse">
      <stop stop-color="#D5795E" offset="0"/>
      <stop stop-color="#C06151" offset="1"/>
    </linearGradient>
    <linearGradient id="paint20_linear_1069_13390" x1="146.7" x2="146.7" y1="155.3" y2="158.9" gradientUnits="userSpaceOnUse">
      <stop stop-color="#F8541B" offset="0"/>
      <stop stop-color="#FEA53D" offset=".3125"/>
      <stop stop-color="#F8541B" offset=".5677"/>
      <stop stop-color="#D54619" offset="1"/>
    </linearGradient>
    <linearGradient id="paint21_linear_1069_13390" x1="165.7" x2="165.7" y1="42.14" y2="48.59" gradientUnits="userSpaceOnUse">
      <stop stop-color="#40292B" offset="0"/>
      <stop stop-color="#2A1A1B" offset="1"/>
    </linearGradient>
    <radialGradient id="paint22_radial_1069_13390" cx="0" cy="0" r="1" gradientTransform="translate(103.5 131.1) scale(26.49 26.5)" gradientUnits="userSpaceOnUse">
      <stop stop-color="#F8541B" offset="0"/>
      <stop stop-color="#D22032" offset=".6927"/>
      <stop stop-color="#B11837" offset="1"/>
    </radialGradient>
    <linearGradient id="paint23_linear_1069_13390" x1="100" x2="100" y1="125.7" y2="155.5" gradientUnits="userSpaceOnUse">
      <stop stop-color="#F8541B" offset="0"/>
      <stop stop-color="#FEA53D" offset=".3125"/>
      <stop stop-color="#FEA53D" offset=".6927"/>
      <stop stop-color="#FEA53D" stop-opacity=".25" offset="1"/>
    </linearGradient>
    <linearGradient id="paint24_linear_1069_13390" x1="161.7" x2="161.7" y1="112.6" y2="121.8" gradientUnits="userSpaceOnUse">
      <stop stop-color="#40292B" offset="0"/>
      <stop stop-color="#2A1A1B" offset="1"/>
    </linearGradient>
    <linearGradient id="paint25_linear_1069_13390" x1="164.9" x2="164.9" y1="60.95" y2="78.45" gradientUnits="userSpaceOnUse">
      <stop stop-color="#B11837" offset="0"/>
      <stop stop-color="#D22032" offset=".5208"/>
      <stop stop-color="#F8541B" offset="1"/>
    </linearGradient>
    <linearGradient id="paint26_linear_1069_13390" x1="156.2" x2="156.2" y1="92.33" y2="106.6" gradientUnits="userSpaceOnUse">
      <stop stop-color="#40292B" offset="0"/>
      <stop stop-color="#B11837" offset=".5208"/>
      <stop stop-color="#F8541B" offset="1"/>
    </linearGradient>
    <linearGradient id="paint27_linear_1069_13390" x1="184.7" x2="184.7" y1="111" y2="116.8" gradientUnits="userSpaceOnUse">
      <stop stop-color="#F8541B" offset="0"/>
      <stop stop-color="#FEA53D" offset=".3125"/>
      <stop stop-color="#F8541B" offset=".5677"/>
      <stop stop-color="#D54619" offset="1"/>
    </linearGradient>
  </defs>
</svg>