<svg xmlns="http://www.w3.org/2000/svg" width="254" height="251" viewBox="0 0 254 251" fill="none">
<path d="M 54.61,42.12 C 57.89,40.25 57.78,36.31 57.39,34.61 C 56.31,30.14 53.19,28.81 49.99,28.81 C 45.72,28.81 43.57,32.15 43.57,35.74 C 43.57,38.96 45.31,40.86 47.03,41.91 C 45.22,51.44 44.81,59.98 45.98,70.72 L 23.26,74.71 L 27.71,82.31 C 31.82,78.72 35.22,77.68 39.92,77.68 C 44.62,77.68 48.15,79.49 50.21,82.22 C 53.03,79.14 56.19,77.68 61.87,77.68 C 66.66,77.68 69.89,79.06 72.89,82.05 L 75.98,74.71 L 55.01,70.89 C 56.31,62.13 55.16,50.89 53.53,42.12 H 54.61 Z" fill="#2a1a00"/>
<path d="M 41.81,80.76 L 44.97,200.17 C 45.05,205.21 48.82,213.98 50.09,219.53 H 50.52 C 52.33,212.93 56.01,204.25 55.92,199.73 L 59.78,79.81 C 55.92,79.81 52.76,81.71 51.13,84.35 L 49.82,198.69 L 48.95,84.26 C 47.32,81.71 45.26,80.76 41.81,80.76 Z" fill="#2a1a00"/>
<path d="M 76.11,104.35 L 81.92,100.01 C 84.29,100.01 85.41,101.78 86.81,103.63 L 93.19,99.92 C 97.38,101.95 98.41,105.17 98.41,108.82 V 116.11 C 98.41,118.81 95.82,120.16 94.27,121.92 C 97.43,123.78 98.62,126.15 98.62,129.16 V 142.2 C 98.62,143.74 97.72,144.36 96.32,144.98 L 87.15,148.39 C 81.71,148.39 80.04,142.71 79.37,139.06 V 128.77 L 78.95,126.11 L 78.99,107.1 C 78.99,105.83 77.92,105.08 76.11,104.35 Z M 85.61,107.53 V 118.98 C 88.56,118.98 91.34,117.58 91.34,114.61 V 109.96 C 91.34,108.02 90.26,106.26 88.72,106.26 C 87.19,106.26 86.65,106.93 85.61,107.53 Z M 85.61,128.64 V 136.61 C 85.61,138.81 86.23,142.32 88.72,142.32 C 90.57,142.32 91.43,141.18 91.43,139.64 V 130.03 C 91.43,128.01 90.17,126.56 88.63,126.56 C 87.09,126.56 86.71,127.51 85.61,128.64 Z" fill="#2a1a00"/>
<path d="M 101.31,148.13 L 104.68,145.02 L 105.02,119.15 L 104.93,106.8 C 104.93,105.26 106.02,104.53 107.41,103.91 L 117.89,99.71 C 122.12,101.73 123.52,105.72 123.52,109.37 V 121.88 L 126.02,123.15 L 124.39,125.22 L 124.18,140.33 C 124.18,141.87 125.12,142.32 126.52,142.92 L 125.48,145.66 L 120.12,148.31 C 117.26,146.28 116.92,144.21 116.92,141.14 V 126.52 H 112.01 L 111.71,140.63 C 111.71,142.17 112.14,143.44 113.54,144.47 L 112.55,146.84 L 102.32,150.49 L 101.31,148.13 Z M 111.11,108.42 V 123.86 H 116.62 V 109.37 C 116.62,107.42 115.54,105.66 114.01,105.66 C 112.47,105.66 111.11,106.88 111.11,108.42 Z M 106.92,115.62 L 107.22,115.87 V 115.36 L 106.92,115.62 Z M 107.11,130.2 L 107.62,130.46 V 129.95 L 107.11,130.2 Z M 120.33,131.69 L 120.72,131.95 V 131.35 L 120.33,131.69 Z M 120.72,135.11 L 121.11,135.37 V 134.77 L 120.72,135.11 Z" fill="#2a1a00"/>
<path d="M 127.14,100.7 H 145.79 C 146.92,100.7 147.44,99.43 147.78,98.48 L 149.18,98.82 L 150.81,102.6 L 148.03,106.63 H 140.92 V 138.02 C 140.92,139.82 141.39,141.81 143.54,142.5 L 143.11,144.42 L 132.88,149.72 L 130.91,148.86 L 131.08,147.41 C 133.13,146.46 133.81,145.02 133.81,142.94 L 134.24,106.63 H 131.08 C 129.27,106.63 128.14,107.58 127.28,109.03 L 125.14,105.61 L 124.71,103.24 L 127.14,100.7 Z M 137.97,109.64 L 138.4,109.81 V 109.21 L 137.97,109.64 Z M 138.71,121.92 L 139.14,122.18 V 121.58 L 138.71,121.92 Z M 136.22,133.07 L 136.56,133.24 V 132.72 L 136.22,133.07 Z" fill="#2a1a00"/>
<path d="M 154.81,100.7 H 171.71 C 172.84,100.7 173.61,99.43 173.95,98.48 L 175.72,98.82 L 178.21,103.24 L 175.72,106.63 H 168.61 V 118.91 L 168.22,121.41 V 137.42 C 168.22,139.83 168.69,141.37 170.84,142.32 L 170.41,144.42 L 159.32,149.72 L 157.78,148.18 L 159.75,145.72 L 160.69,106.63 L 159.75,106.46 H 158.39 C 156.58,106.46 155.45,107.41 154.59,108.86 L 151.06,104.13 L 151.53,102.06 L 154.81,100.7 Z M 163.98,123.86 L 164.41,124.03 V 123.43 L 163.98,123.86 Z" fill="#2a1a00"/>
<path d="M 178.21,105.09 L 189.26,100.01 L 189.82,101.64 C 187.68,103.67 187.21,105.74 187.21,108.11 V 116.08 L 186.82,118.91 V 125.14 L 187.16,127.6 V 135.56 C 187.16,139.91 189.65,143.03 193.02,143.03 H 196.88 L 197.64,142.41 L 197.98,143.28 L 197.12,145.47 L 189.91,148.39 C 184.38,148.39 180.15,142.32 180.15,138.67 V 127.6 L 179.94,125.14 V 111.01 L 179.51,107.19 L 178.21,105.09 Z" fill="#2a1a00"/>
<path d="M 202.17,106.22 C 202.17,105.17 202.74,105.09 203.51,104.66 L 214.72,100.01 L 215.71,100.35 L 219.61,110.92 L 222.08,112.19 L 220.73,114.26 L 215.29,116.92 L 211.92,106.22 L 209.18,107.17 V 122.7 H 217.12 L 216.08,125.76 L 208.97,126.02 V 136.63 C 208.97,140.37 211.46,143.03 214.83,143.03 H 219.1 L 219.62,144.47 L 218.58,146.23 L 210.72,148.6 C 205.19,147.06 201.74,143.03 201.74,137.72 V 131.78 L 201.4,129.41 L 201.74,126.49 V 121.19 L 202.17,118.12 V 112.19 L 201.74,109.12 L 202.17,106.22 Z" fill="#2a1a00"/>
<path d="M 224.81,103.24 L 228.62,100.31 C 232.07,100.83 233.93,102.46 233.93,105.06 V 108.71 L 233.54,111.16 V 115.07 L 233.28,117.52 V 130.91 C 233.28,132.45 233.91,132.9 235.31,133.5 L 234.92,135.43 L 228.94,138.13 C 227.13,137.18 226.66,135.11 226.66,132.92 V 125.14 L 226.83,122.69 V 106.67 C 226.83,105.13 226.21,104.26 224.81,103.24 Z M 227.28,143.91 L 232.9,141.62 L 234.62,143.07 L 235.14,148.92 L 229.29,150.95 L 227.66,149.5 L 227.28,143.91 Z" fill="#2a1a00"/>
</svg>
